# Blender v2.76 (sub 0) OBJ File: 'tree1.blend'
# www.blender.org
mtllib tree1.mtl
o Icosphere
v -0.012729 -2.321808 -0.203964
v 0.056653 -0.624346 -0.125835
v 0.163588 -2.321808 -0.102168
v 0.163583 -0.624346 -0.064100
v 0.163588 -2.321808 0.101426
v 0.163583 -0.624346 0.059372
v -0.012729 -2.321808 0.203222
v 0.056653 -0.624346 0.121107
v -0.189046 -2.321808 0.101425
v -0.050276 -0.624346 0.059372
v -0.189046 -2.321808 -0.102168
v -0.050276 -0.624346 -0.064100
v -0.235241 -0.700735 -0.724008
v 0.003618 0.523793 0.892291
v -0.584116 0.361003 -0.796989
v 0.521546 0.523792 -0.724007
v 1.028422 0.315017 0.129445
v -0.178166 1.060727 -0.129444
v 0.178166 -1.060727 0.129444
v -0.003618 -0.523793 0.892291
v 0.847502 -0.523790 0.279175
v -0.850254 -0.671350 -0.000000
v 0.527408 -0.523791 -0.719749
v 0.322581 0.053590 0.992798
v -0.889814 0.356723 0.520931
v -1.043889 -0.053590 -0.000000
v 0.322580 0.053590 -0.992798
v 0.338901 0.957650 0.246226
vn -0.318500 -0.918800 -0.233300
vn -0.736400 -0.284200 -0.614000
vn 0.781400 -0.057600 0.621400
vn -0.354300 0.037500 0.934400
vn -0.257100 -0.150100 -0.954700
vn 0.841100 0.043400 -0.539100
vn 0.579200 0.505200 0.639800
vn -0.351000 0.801700 0.483800
vn -0.769000 0.614400 -0.176400
vn -0.057400 0.706400 -0.705500
vn 0.648300 0.733000 -0.205700
vn 0.398000 0.863100 -0.311000
vn -0.179600 0.857300 0.482500
vn 0.851300 -0.062500 -0.520900
vn -0.016700 0.501500 -0.865000
vn -0.817000 0.545200 -0.187700
vn -0.374300 -0.056000 0.925600
vn 0.574600 0.524200 0.628500
vn 0.097200 -0.397100 -0.912600
vn -0.779500 -0.244300 -0.576800
vn -0.847400 -0.265600 0.459800
vn -0.644400 -0.365200 0.671800
vn 0.528700 -0.426400 0.733900
vn 0.921700 -0.251500 -0.295300
vn 0.202800 -0.863200 -0.462400
vn -0.363100 -0.800500 0.476900
vn 0.639900 -0.740600 -0.205100
vn 0.422700 -0.690600 0.586800
vn 0.499900 0.019400 -0.865900
vn 1.000000 0.000000 0.000000
vn 0.499900 0.021500 0.865800
vn -0.499000 0.062200 0.864300
vn 0.000000 1.000000 0.000000
vn -0.499100 0.060200 -0.864500
vn -0.996700 0.081500 0.000000
vn 0.000000 -1.000000 0.000000
usemtl Leaves
s off
f 19//1 22//1 13//1
f 13//2 22//2 15//2
f 21//3 17//3 24//3
f 20//4 24//4 25//4
f 13//5 15//5 27//5
f 23//6 27//6 17//6
f 14//7 17//7 28//7
f 25//8 14//8 18//8
f 15//9 25//9 18//9
f 16//10 15//10 18//10
f 17//11 16//11 28//11
f 28//12 16//12 18//12
f 18//13 14//13 28//13
f 17//14 27//14 16//14
f 27//15 15//15 16//15
f 26//16 25//16 15//16
f 25//17 24//17 14//17
f 24//18 17//18 14//18
f 23//19 13//19 27//19
f 15//20 22//20 26//20
f 26//21 22//21 25//21
f 22//22 20//22 25//22
f 20//23 21//23 24//23
f 21//24 23//24 17//24
f 19//25 13//25 23//25
f 19//26 20//26 22//26
f 21//27 19//27 23//27
f 19//28 21//28 20//28
usemtl Brown
f 1//29 2//29 4//29 3//29
f 3//30 4//30 6//30 5//30
f 5//31 6//31 8//31 7//31
f 7//32 8//32 10//32 9//32
f 4//33 2//33 12//33 10//33 8//33 6//33
f 11//34 12//34 2//34 1//34
f 9//35 10//35 12//35 11//35
f 1//36 3//36 5//36 7//36 9//36 11//36
